TITLE ""
FILE "Disc4Track04.mp3" MP3
  TRACK 01 AUDIO
    TITLE "Disc4Track04_01"
    INDEX 01 00:00:00
  TRACK 02 AUDIO
    TITLE "Disc4Track04_02"
    INDEX 01 00:01:23
  TRACK 03 AUDIO
    TITLE "Disc4Track04_03"
    INDEX 01 00:02:29
  TRACK 04 AUDIO
    TITLE "Disc4Track04_04"
    INDEX 01 00:03:63
  TRACK 05 AUDIO
    TITLE "Disc4Track04_05"
    INDEX 01 00:04:28
  TRACK 06 AUDIO
    TITLE "Disc4Track04_06"
    INDEX 01 00:06:03
  TRACK 07 AUDIO
    TITLE "Disc4Track04_07"
    INDEX 01 00:08:18
  TRACK 08 AUDIO
    TITLE "Disc4Track04_08"
    INDEX 01 00:09:66
  TRACK 09 AUDIO
    TITLE "Disc4Track04_09"
    INDEX 01 00:14:30
  TRACK 10 AUDIO
    TITLE "Disc4Track04_10"
    INDEX 01 00:14:61
  TRACK 11 AUDIO
    TITLE "Disc4Track04_11"
    INDEX 01 00:16:27
  TRACK 12 AUDIO
    TITLE "Disc4Track04_12"
    INDEX 01 00:17:54
  TRACK 13 AUDIO
    TITLE "Disc4Track04_13"
    INDEX 01 00:19:19
  TRACK 14 AUDIO
    TITLE "Disc4Track04_14"
    INDEX 01 00:19:61
  TRACK 15 AUDIO
    TITLE "Disc4Track04_15"
    INDEX 01 00:21:07
  TRACK 16 AUDIO
    TITLE "Disc4Track04_16"
    INDEX 01 00:23:37
  TRACK 17 AUDIO
    TITLE "Disc4Track04_17"
    INDEX 01 00:24:54
  TRACK 18 AUDIO
    TITLE "Disc4Track04_18"
    INDEX 01 00:27:54
  TRACK 19 AUDIO
    TITLE "Disc4Track04_19"
    INDEX 01 00:28:13
  TRACK 20 AUDIO
    TITLE "Disc4Track04_20"
    INDEX 01 00:29:18
  TRACK 21 AUDIO
    TITLE "Disc4Track04_21"
    INDEX 01 00:32:26
  TRACK 22 AUDIO
    TITLE "Disc4Track04_22"
    INDEX 01 00:33:35
  TRACK 23 AUDIO
    TITLE "Disc4Track04_23"
    INDEX 01 00:36:10
  TRACK 24 AUDIO
    TITLE "Disc4Track04_24"
    INDEX 01 00:36:43
  TRACK 25 AUDIO
    TITLE "Disc4Track04_25"
    INDEX 01 00:37:68
  TRACK 26 AUDIO
    TITLE "Disc4Track04_26"
    INDEX 01 00:39:42
  TRACK 27 AUDIO
    TITLE "Disc4Track04_27"
    INDEX 01 00:40:63
  TRACK 28 AUDIO
    TITLE "Disc4Track04_28"
    INDEX 01 00:42:66
  TRACK 29 AUDIO
    TITLE "Disc4Track04_29"
    INDEX 01 00:43:24
  TRACK 30 AUDIO
    TITLE "Disc4Track04_30"
    INDEX 01 00:45:01
  TRACK 31 AUDIO
    TITLE "Disc4Track04_31"
    INDEX 01 00:46:34
  TRACK 32 AUDIO
    TITLE "Disc4Track04_32"
    INDEX 01 00:48:09
  TRACK 33 AUDIO
    TITLE "Disc4Track04_33"
    INDEX 01 00:52:50
  TRACK 34 AUDIO
    TITLE "Disc4Track04_34"
    INDEX 01 00:53:07
  TRACK 35 AUDIO
    TITLE "Disc4Track04_35"
    INDEX 01 00:54:22
  TRACK 36 AUDIO
    TITLE "Disc4Track04_36"
    INDEX 01 00:57:06
  TRACK 37 AUDIO
    TITLE "Disc4Track04_37"
    INDEX 01 00:58:19
  TRACK 38 AUDIO
    TITLE "Disc4Track04_38"
    INDEX 01 01:00:56
  TRACK 39 AUDIO
    TITLE "Disc4Track04_39"
    INDEX 01 01:01:12
  TRACK 40 AUDIO
    TITLE "Disc4Track04_40"
    INDEX 01 01:02:41
  TRACK 41 AUDIO
    TITLE "Disc4Track04_41"
    INDEX 01 01:04:02
  TRACK 42 AUDIO
    TITLE "Disc4Track04_42"
    INDEX 01 01:05:31
  TRACK 43 AUDIO
    TITLE "Disc4Track04_43"
    INDEX 01 01:05:69
  TRACK 44 AUDIO
    TITLE "Disc4Track04_44"
    INDEX 01 01:07:16
  TRACK 45 AUDIO
    TITLE "Disc4Track04_45"
    INDEX 01 01:08:30
  TRACK 46 AUDIO
    TITLE "Disc4Track04_46"
    INDEX 01 01:09:53
  TRACK 47 AUDIO
    TITLE "Disc4Track04_47"
    INDEX 01 01:12:27
  TRACK 48 AUDIO
    TITLE "Disc4Track04_48"
    INDEX 01 01:12:61
  TRACK 49 AUDIO
    TITLE "Disc4Track04_49"
    INDEX 01 01:14:11
  TRACK 50 AUDIO
    TITLE "Disc4Track04_50"
    INDEX 01 01:15:08
  TRACK 51 AUDIO
    TITLE "Disc4Track04_51"
    INDEX 01 01:16:35
